# xmcd
#
# Track frame offsets: 
#        300
#        24798
#        45902
#        63881
#        82169
#        97619
#        127252
#        143300
#        164678
#        176989
#        194809
#        210114
#        230964
#        248381
#        264599
#        281005
#        297922
#        321635
#
# Disc length: 4520 seconds
#
# Revision: 0
# Processed by: cddbd v1.5.2PL0 Copyright (c) Steve Scherf et al.
# Submitted via: ExactAudioCopy v1.0b1
#
DISCID=0811a412
DTITLE=Ana Popovic - The Hustle Is On
DYEAR=2009
DGENRE=General Blues
TTITLE0=Blues For M
TTITLE1=How The Mighty Have Fallen
TTITLE2=How'd You Learn To Shake It Like That
TTITLE3=I'm About To Leave  You
TTITLE4=Fool Proof
TTITLE5=That's Why I Cry
TTITLE6=Steal Me Away
TTITLE7=You Don't Move Me
TTITLE8=The Hustle Is On
TTITLE9=Girl Of Many Words
TTITLE10=Walk Away
TTITLE11=New York City
TTITLE12=Sittin' On Top Of The World
TTITLE13=Get Back Home To You
TTITLE14=Nothing Personal
TTITLE15=Learn To Treat Me Right
TTITLE16=Neighbour, Neighbour
TTITLE17=Statesboro Blues
EXTD=
EXTT0=
EXTT1=
EXTT2=
EXTT3=
EXTT4=
EXTT5=
EXTT6=
EXTT7=
EXTT8=
EXTT9=
EXTT10=
EXTT11=
EXTT12=
EXTT13=
EXTT14=
EXTT15=
EXTT16=
EXTT17=
PLAYORDER=
